<svg viewBox="0 0 1200 320" xmlns="http://www.w3.org/2000/svg">
  <defs>
    <style>
      @import url('https://fonts.googleapis.com/css2?family=Manrope:wght@400;500;700;800&amp;display=swap');
    </style>
  </defs>

  <!-- Icon (scaled to fit ~280px) -->
  <g transform="translate(40, 15) scale(0.56)">
    <!-- Left figure (dark indigo) -->
    <circle cx="148" cy="78" r="46" fill="#4338ca"/>
    <path fill="#4338ca" d="
      M 120 115
      C 70 140, 25 210, 25 290
      C 25 370, 80 430, 180 455
      C 220 462, 250 464, 270 464
      C 260 455, 235 440, 200 420
      C 140 390, 100 340, 95 290
      C 90 240, 100 185, 135 140
      Z
    "/>
    <path fill="#4338ca" d="
      M 175 105
      C 200 92, 230 86, 258 88
      C 245 100, 218 105, 190 110
      Z
    "/>

    <!-- Right figure (lavender) -->
    <circle cx="364" cy="78" r="46" fill="#a5b4fc"/>
    <path fill="#a5b4fc" d="
      M 392 115
      C 442 140, 487 210, 487 290
      C 487 370, 432 430, 332 455
      C 292 462, 262 464, 242 464
      C 252 455, 277 440, 312 420
      C 372 390, 412 340, 417 290
      C 422 240, 412 185, 377 140
      Z
    "/>
    <path fill="#a5b4fc" d="
      M 337 105
      C 312 92, 282 86, 254 88
      C 267 100, 294 105, 322 110
      Z
    "/>

    <!-- House roof -->
    <path fill="#4338ca" d="
      M 256 168
      L 178 242
      L 196 242
      L 196 338
      L 316 338
      L 316 242
      L 334 242
      Z
    "/>
    <rect x="203" y="248" width="106" height="84" rx="4" fill="white"/>
    <rect x="215" y="305" width="22" height="23" rx="3" fill="#4338ca"/>
    <rect x="245" y="283" width="22" height="45" rx="3" fill="#4338ca"/>
    <rect x="275" y="260" width="22" height="68" rx="3" fill="#4338ca"/>
  </g>

  <!-- Wordmark -->
  <text x="370" y="175" font-family="'Manrope', sans-serif" font-size="96" font-weight="800" fill="#1e1b4b" letter-spacing="-2">Ophelia</text>
  <text x="858" y="175" font-family="'Manrope', sans-serif" font-size="96" font-weight="400" fill="#4338ca" letter-spacing="-2">Hub</text>

  <!-- Tagline -->
  <text x="373" y="230" font-family="'Manrope', sans-serif" font-size="24" font-weight="500" fill="#94a3b8" letter-spacing="6">PLAN TOGETHER</text>
  <text x="690" y="230" font-family="'Manrope', sans-serif" font-size="24" font-weight="500" fill="#a5b4fc" letter-spacing="0">&#8226;</text>
  <text x="720" y="230" font-family="'Manrope', sans-serif" font-size="24" font-weight="500" fill="#94a3b8" letter-spacing="6">GROW TOGETHER</text>
</svg>
